# xmcd
#
# Track frame offsets:
#	183
#	19378
#	32335
#	51060
#	62435
#	77838
#	93083
#	106793
#	118785
#	131463
#	144763
#	158228
#	172980
#	187080
#	203438
#	222700
#	237733
#	250755
#
# Disc length: 3468 seconds
#
# Revision: 1
# Processed by: cddbd v1.5.2PL0 Copyright (c) Steve Scherf et al.
# Submitted via: audiograbber 1.82.01
#
DISCID=ee0d8a12
DTITLE=Various Artist - Soul Deep
DYEAR=1987
DGENRE=Soul
TTITLE0=Geater Davis - Sad Shade Of Blue
TTITLE1=Betty Lavette - Let Me Down Easy
TTITLE2=Little Richard - I Don't Know What You Got But It's Got Me
TTITLE3=ZZ Hill - Faithful And True
TTITLE4=Peggy Scott - Every Little Bit Hurts
TTITLE5=Earl Gaines - Hymn No 5
TTITLE6=Charles Smith - Ashes To Ashes
TTITLE7=Gladys Smith and The Pips - Either Way I Love You
TTITLE8=Sam Baker - I Love You
TTITLE9=Doris Duke - To The Other Woman
TTITLE10=Ted Taylor - It's Too Late
TTITLE11=The Ad Libs - Giving Up
TTITLE12=Toussaint McCall - Nothing Takes The Place Of You
TTITLE13=Barbara West - The Love Of My Man
TTITLE14=Clarence Carter - What Was I Supposed To Do
TTITLE15=George Perkins - Crying In The Streets
TTITLE16=Geater Davis - Long Cold Winter
TTITLE17=Big Al Downing - Corn Bread Row
EXTD=
EXTT0=
EXTT1=
EXTT2=
EXTT3=
EXTT4=
EXTT5=
EXTT6=
EXTT7=
EXTT8=
EXTT9=
EXTT10=
EXTT11=
EXTT12=
EXTT13=
EXTT14=
EXTT15=
EXTT16=
EXTT17=
PLAYORDER=
